<?xml version="1.0" standalone="no"?>
<!DOCTYPE svg PUBLIC "-//W3C//DTD SVG 20010904//EN"
 "http://www.w3.org/TR/2001/REC-SVG-20010904/DTD/svg10.dtd">
<svg version="1.0" xmlns="http://www.w3.org/2000/svg"
 width="352.000000pt" height="366.000000pt" viewBox="0 0 352.000000 366.000000"
 preserveAspectRatio="xMidYMid meet">

<g transform="translate(0.000000,366.000000) scale(0.100000,-0.100000)"
fill="#000000" stroke="none">
<path d="M2993 2837 l-73 -62 0 -936 0 -935 -575 -301 -575 -301 -542 284
c-299 156 -547 284 -553 284 -5 0 -37 -24 -69 -53 l-59 -53 84 -46 c46 -25
145 -77 219 -116 74 -39 312 -163 527 -275 l393 -205 655 341 655 342 0 1048
c0 576 -3 1047 -7 1046 -5 0 -41 -28 -80 -62z"/>
<path d="M922 2630 c-127 -78 -75 -263 74 -263 55 0 64 7 64 54 l0 39 -25 -16
c-34 -22 -81 -10 -100 26 -20 38 -19 52 6 84 22 28 64 35 100 16 17 -10 19 -7
19 29 0 26 -5 41 -16 45 -32 12 -90 5 -122 -14z"/>
<path d="M1676 2623 c-22 -22 -26 -34 -24 -67 3 -42 6 -45 82 -78 37 -16 43
-34 16 -48 -16 -9 -28 -8 -52 4 -17 9 -32 15 -33 14 -14 -18 -25 -52 -18 -58
4 -5 29 -14 54 -21 40 -11 50 -10 85 7 28 14 41 28 48 51 15 56 1 82 -60 109
-64 28 -67 50 -7 47 34 -1 42 2 52 23 10 22 8 26 -15 34 -49 19 -99 12 -128
-17z"/>
<path d="M1170 2618 c-22 -52 -90 -232 -90 -240 0 -4 16 -8 35 -8 29 0 37 5
45 25 8 22 15 25 60 25 45 0 50 -2 56 -25 5 -21 12 -25 45 -25 21 0 39 1 39 3
0 1 -22 61 -49 132 l-50 130 -40 3 c-35 3 -42 0 -51 -20z m60 -77 c0 -5 3 -23
6 -40 6 -29 4 -31 -21 -31 -21 0 -26 4 -21 16 3 9 9 27 12 40 6 23 24 34 24
15z"/>
<path d="M1380 2505 l0 -136 78 3 c76 3 77 3 80 31 3 26 2 27 -42 27 l-46 0 0
105 0 105 -35 0 -35 0 0 -135z"/>
<path d="M1850 2610 c0 -27 3 -30 30 -30 l30 0 0 -105 0 -105 35 0 35 0 0 104
0 105 28 3 c21 2 28 9 30 31 l3 27 -95 0 -96 0 0 -30z"/>
<path d="M2116 2631 c-10 -16 -96 -241 -96 -251 0 -6 15 -10 33 -10 26 0 36 6
45 25 10 22 18 25 61 25 44 0 49 -3 55 -25 5 -21 12 -25 46 -25 22 0 40 1 40
3 0 2 -11 30 -24 63 -13 32 -35 92 -50 132 l-28 72 -38 0 c-21 0 -41 -4 -44
-9z m60 -129 c6 -30 4 -32 -20 -32 -30 0 -30 2 -14 47 14 37 25 33 34 -15z"/>
<path d="M2280 2610 c0 -26 4 -30 28 -30 l27 0 0 -102 0 -103 35 0 35 0 -2
103 -1 102 29 0 c26 0 29 4 29 30 l0 30 -90 0 -90 0 0 -30z"/>
<path d="M2490 2505 l0 -135 75 0 75 0 0 30 c0 28 -2 30 -40 30 -36 0 -40 3
-40 25 0 20 5 25 25 25 21 0 25 5 25 30 0 25 -4 30 -25 30 -18 0 -25 5 -25 20
0 17 7 20 40 20 38 0 40 2 40 30 l0 30 -75 0 -75 0 0 -135z"/>
<path d="M885 2120 c-10 -16 4 -30 31 -30 38 0 60 -15 75 -52 11 -26 14 -108
14 -388 0 -424 4 -408 -107 -444 -10 -3 -18 -10 -18 -16 0 -7 117 -9 367 -8
l366 3 43 115 c24 63 43 123 44 133 0 37 -32 12 -51 -39 -24 -63 -79 -128
-130 -155 -52 -26 -149 -35 -224 -19 -46 10 -68 21 -96 49 -35 35 -37 40 -44
126 -12 136 3 611 20 651 13 32 24 38 80 46 11 2 20 10 20 18 0 13 -30 15
-192 18 -122 1 -194 -1 -198 -8z"/>
<path d="M1995 2120 c-11 -17 5 -30 36 -30 44 0 63 -14 84 -59 l18 -41 -148
-355 c-152 -366 -175 -408 -231 -420 -49 -11 -56 -14 -49 -25 4 -6 73 -10 176
-10 144 0 169 2 169 15 0 10 -10 15 -34 15 -53 0 -95 19 -102 46 -5 18 29 119
117 349 67 179 124 323 126 322 4 -5 113 -311 113 -319 0 -5 -41 -8 -90 -8
-85 0 -91 -1 -99 -22 -8 -23 -7 -23 103 -28 l111 -5 38 -105 c21 -58 41 -126
44 -151 5 -40 3 -48 -18 -63 -13 -9 -43 -16 -66 -16 -32 0 -43 -4 -43 -15 0
-13 31 -15 221 -15 169 0 220 3 217 12 -3 7 -22 16 -43 20 -46 10 -60 21 -90
68 -29 47 -38 70 -181 474 -69 192 -129 355 -135 363 -14 16 -234 19 -244 3z"/>
</g>
</svg>
