<?xml version="1.0" standalone="no"?>
<!DOCTYPE svg PUBLIC "-//W3C//DTD SVG 20010904//EN"
 "http://www.w3.org/TR/2001/REC-SVG-20010904/DTD/svg10.dtd">
<svg version="1.0" xmlns="http://www.w3.org/2000/svg"
 width="270.000000pt" height="256.000000pt" viewBox="0 0 270.000000 256.000000"
 preserveAspectRatio="xMidYMid meet">

<g transform="translate(0.000000,256.000000) scale(0.100000,-0.100000)"
fill="#000000" stroke="none">
<path d="M2028 1953 l-47 -38 -2 -290 c-1 -159 -1 -294 0 -299 1 -4 -6 -14
-16 -22 -17 -13 -17 -13 2 -14 l20 -1 -20 -9 c-20 -8 -20 -8 -1 -16 19 -7 19
-8 0 -15 -17 -7 -17 -8 -1 -8 9 -1 17 -6 17 -12 0 -5 -4 -8 -9 -4 -5 3 -12 1
-16 -5 -3 -5 2 -10 12 -11 16 0 16 -1 -2 -9 -17 -7 -17 -9 -2 -9 9 -1 17 -6
17 -12 0 -5 -4 -8 -9 -4 -5 3 -12 1 -16 -5 -3 -5 2 -10 12 -11 16 0 16 -1 -2
-9 -20 -8 -20 -8 -1 -16 19 -7 19 -8 0 -15 -17 -7 -17 -8 -1 -8 9 -1 17 -6 17
-12 0 -5 -4 -8 -9 -4 -5 3 -12 1 -16 -5 -3 -5 2 -10 12 -11 16 0 16 -1 -2 -9
-17 -7 -17 -9 -2 -9 9 -1 17 -5 17 -11 0 -5 -8 -10 -17 -11 -15 0 -15 -2 2 -9
l20 -9 -20 -1 c-20 -1 -20 -1 -1 -15 20 -15 20 -15 0 -16 -19 0 -19 -1 0 -8
19 -7 19 -8 0 -15 -19 -8 -19 -8 1 -16 15 -7 16 -9 4 -9 -21 -1 -20 -33 1 -43
12 -5 10 -7 -5 -8 -20 -1 -20 -1 -1 -15 20 -15 20 -15 0 -16 -19 0 -19 -1 0
-8 19 -7 19 -8 0 -15 -19 -8 -19 -8 1 -16 18 -8 18 -9 2 -9 -10 -1 -15 -6 -12
-11 4 -6 11 -8 16 -5 5 4 9 1 9 -4 0 -6 -8 -11 -17 -12 -15 0 -15 -2 2 -9 l20
-9 -20 -1 c-20 -1 -20 -1 -1 -15 18 -14 18 -15 2 -15 -9 0 -14 -4 -11 -10 3
-5 1 -10 -5 -10 -7 0 -10 93 -8 315 2 173 0 315 -4 315 -4 0 -8 26 -10 58 -2
31 -3 -114 -3 -323 l0 -379 -30 -16 c-16 -8 -60 -32 -98 -52 -76 -42 -71 -45
-86 56 -9 59 -4 123 34 465 25 218 45 399 45 403 0 4 24 5 53 3 l52 -4 -52 10
c-66 13 -68 22 -9 67 46 36 11 25 -52 -15 -31 -21 -58 -38 -60 -39 -1 -1 -14
-77 -27 -169 -14 -92 -30 -174 -35 -183 -8 -14 -9 -11 -6 11 4 22 1 27 -15 27
-12 0 -19 7 -19 20 0 13 7 20 18 20 14 0 18 9 18 45 1 33 -3 45 -14 45 -8 0
-12 -6 -8 -15 3 -8 1 -15 -4 -15 -6 0 -10 9 -10 20 0 13 7 20 19 20 26 0 23
53 -4 62 -17 5 -15 6 8 7 34 1 36 21 1 21 -24 0 -25 2 -22 53 3 53 -8 76 -45
90 -22 8 -47 -2 -47 -19 0 -9 -11 -14 -30 -14 -30 0 -30 -1 -30 -55 0 -42 -3
-55 -15 -55 -13 0 -15 -58 -15 -458 0 -359 3 -462 13 -477 7 -11 12 -26 11
-32 -1 -7 -2 -17 -3 -23 0 -5 -10 -10 -21 -10 -11 0 -20 -4 -20 -10 0 -11 11
-13 50 -10 18 1 8 -8 -34 -30 -32 -17 -66 -29 -75 -27 -14 4 -14 5 1 6 16 1
17 16 15 161 l-1 160 -36 -2 -36 -1 1 -184 c0 -102 -3 -187 -7 -189 -4 -3 -8
95 -8 217 0 122 -3 219 -7 216 -3 -4 -9 -73 -12 -155 l-6 -147 -25 0 c-27 0
-33 17 -17 49 6 13 5 21 -4 27 -11 7 -10 9 3 9 9 0 19 -6 21 -12 3 -7 6 24 6
70 l1 82 -72 2 -73 2 65 3 c105 6 103 17 -5 23 l-100 6 100 3 c71 2 91 6 70
11 l-30 8 28 1 c16 0 26 5 23 10 -4 5 -35 9 -71 8 -36 -1 -65 1 -65 6 0 4 33
8 73 9 48 1 27 4 -63 8 l-135 6 128 2 c85 1 127 6 127 13 0 6 -9 9 -20 6 -11
-3 -20 -1 -20 4 0 5 12 10 28 11 15 1 -36 5 -113 8 l-140 6 135 2 c128 2 136
3 136 22 0 19 -8 20 -131 22 l-130 2 130 6 c114 4 130 7 131 23 2 15 -12 17
-135 19 l-136 2 135 6 c111 4 135 8 135 20 0 12 -24 16 -135 20 l-135 6 138 2
c82 1 136 6 132 11 -3 5 -63 9 -132 8 l-128 -2 3 43 c3 41 3 42 -27 42 l-31 0
0 -80 c0 -73 2 -80 20 -80 11 0 20 -6 20 -12 0 -9 -17 -13 -52 -13 l-53 0 -5
-200 -6 -200 -2 218 -2 217 -40 0 -40 0 -1 -92 c-1 -51 -5 -138 -9 -193 l-7
-100 -1 88 c-1 48 -6 87 -12 87 -5 0 -11 -37 -13 -82 l-3 -83 -2 83 c-1 45 -6
82 -12 82 -5 0 -11 -33 -13 -72 l-3 -73 -2 73 c-3 91 -22 96 -22 6 0 -58 -2
-65 -15 -54 -17 14 -22 120 -5 120 6 0 10 18 10 40 0 31 -4 40 -17 40 -16 0
-18 -12 -21 -87 -2 -49 -5 -89 -7 -91 -1 -1 -19 5 -39 14 l-36 18 -35 -34
c-33 -32 -35 -36 -18 -48 10 -7 106 -58 213 -114 255 -132 391 -203 467 -244
34 -19 66 -34 72 -34 10 0 809 416 824 429 4 4 6 305 5 669 l-3 662 -47 -37z
m-468 -337 c0 -3 -4 -8 -10 -11 -5 -3 -10 -1 -10 4 0 6 5 11 10 11 6 0 10 -2
10 -4z m5 -76 c-3 -5 -2 -10 4 -10 5 0 12 6 14 13 3 7 6 5 6 -5 1 -12 -6 -18
-19 -18 -11 0 -20 7 -20 15 0 8 5 15 11 15 5 0 7 -4 4 -10z m23 -107 c-1 -55
-3 -64 -5 -30 -3 35 -8 47 -21 48 -15 1 -15 2 1 6 10 3 17 14 17 29 0 13 2 24
5 24 3 0 4 -35 3 -77z m-78 -63 c0 -89 -3 -120 -12 -120 -10 0 -13 28 -11 110
2 107 1 110 -20 111 -21 0 -21 1 -2 9 44 19 45 16 45 -110z m130 76 c0 -3 -4
-8 -10 -11 -5 -3 -10 -1 -10 4 0 6 5 11 10 11 6 0 10 -2 10 -4z m-4 -116 c0
-11 -4 -20 -8 -20 -4 0 -8 9 -8 20 0 11 4 20 8 20 4 0 8 -9 8 -20z m-48 -407
c-1 -225 -4 -369 -5 -320 -3 68 -7 87 -18 87 -8 0 -15 8 -14 18 0 10 3 12 6 5
18 -46 23 18 23 296 0 286 -1 310 -17 314 -14 4 -12 5 5 6 l22 1 -2 -407z
m-21 352 c0 -8 -4 -15 -9 -15 -4 0 -8 7 -8 15 0 8 4 15 8 15 5 0 9 -7 9 -15z
m69 -47 c-1 -13 6 -26 14 -30 12 -5 12 -7 -2 -7 -21 -1 -25 -37 -5 -44 7 -3 5
-6 -5 -6 -15 -1 -18 8 -18 54 0 30 4 55 9 55 4 0 8 -10 7 -22z m-79 -30 c-3
-8 -6 -5 -6 6 -1 11 2 17 5 13 3 -3 4 -12 1 -19z m93 -79 c0 -5 -4 -7 -10 -4
-5 3 -10 2 -10 -4 0 -5 6 -12 13 -14 7 -3 5 -6 -5 -6 -12 -1 -18 6 -18 19 0
11 7 20 15 20 8 0 15 -5 15 -11z m-18 -96 c-5 -78 -12 -80 -12 -5 0 34 4 62 8
62 5 0 6 -26 4 -57z m-592 -23 c0 -5 -9 -10 -20 -10 -11 0 -20 5 -20 10 0 6 9
10 20 10 11 0 20 -4 20 -10z m50 -1 c0 -5 -9 -9 -20 -9 -11 0 -20 4 -20 8 0 4
9 8 20 9 11 1 20 -2 20 -8z m100 -1 c0 -4 -7 -8 -15 -8 -8 0 -15 4 -15 8 0 5
7 9 15 9 8 0 15 -4 15 -9z m377 -33 c0 -8 -4 -15 -9 -15 -4 0 -8 7 -8 15 0 8
4 15 8 15 5 0 9 -7 9 -15z m-527 -15 c0 -5 -9 -10 -20 -10 -11 0 -20 5 -20 10
0 6 9 10 20 10 11 0 20 -4 20 -10z m156 3 c-9 -10 -146 -11 -146 -1 0 4 35 8
77 8 42 0 73 -3 69 -7z m-346 -198 c0 -205 -2 -212 -44 -180 -17 13 -18 25
-13 172 4 87 7 168 7 181 0 17 6 22 25 22 l25 0 0 -195z m190 151 c0 -2 -7 -6
-15 -10 -8 -3 -15 -1 -15 4 0 6 7 10 15 10 8 0 15 -2 15 -4z m0 -54 c0 -4 -9
-8 -20 -9 -11 -1 -20 2 -20 8 0 5 9 9 20 9 11 0 20 -4 20 -8z m70 4 c0 -2 -9
-6 -20 -9 -11 -3 -20 -1 -20 4 0 5 9 9 20 9 11 0 20 -2 20 -4z m88 -1 c-9 -9
-78 -12 -78 -3 0 4 19 8 42 8 23 0 39 -2 36 -5z m-90 -50 c-9 -9 -78 -12 -78
-3 0 4 19 8 42 8 23 0 39 -2 36 -5z m15 -32 c-7 -2 -19 -2 -25 0 -7 3 -2 5 12
5 14 0 19 -2 13 -5z m65 0 c-10 -2 -26 -2 -35 0 -10 3 -2 5 17 5 19 0 27 -2
18 -5z m-201 -45 c-3 -7 -5 -2 -5 12 0 14 2 19 5 13 2 -7 2 -19 0 -25z m123
-28 c0 -5 -2 -10 -4 -10 -3 0 -8 5 -11 10 -3 6 -1 10 4 10 6 0 11 -4 11 -10z
m73 3 c-7 -2 -19 -2 -25 0 -7 3 -2 5 12 5 14 0 19 -2 13 -5z m54 1 c-3 -3 -12
-4 -19 -1 -8 3 -5 6 6 6 11 1 17 -2 13 -5z m96 -158 c1 -86 -1 -156 -5 -156
-5 0 -8 73 -8 162 0 89 2 159 5 156 3 -3 7 -76 8 -162z m-93 134 c0 -6 -23 -9
-52 -8 l-53 1 50 7 c28 4 51 8 53 8 1 1 2 -2 2 -8z m-233 -42 c2 -17 0 -19 -7
-8 -5 8 -6 18 -4 22 8 12 10 10 11 -14z m221 15 c-10 -2 -28 -2 -40 0 -13 2
-5 4 17 4 22 1 32 -1 23 -4z m-173 -23 c3 -5 1 -10 -4 -10 -6 0 -11 5 -11 10
0 6 2 10 4 10 3 0 8 -4 11 -10z m105 -6 c0 -2 -12 -4 -26 -4 -14 0 -23 4 -20
9 6 8 46 4 46 -5z m80 6 c0 -5 -8 -10 -17 -10 -15 0 -16 2 -3 10 19 12 20 12
20 0z m-167 -27 c-7 -2 -19 -2 -25 0 -7 3 -2 5 12 5 14 0 19 -2 13 -5z m135 0
c-21 -2 -55 -2 -75 0 -21 2 -4 4 37 4 41 0 58 -2 38 -4z m-21 -27 c4 -3 -29
-6 -73 -5 -43 0 -71 4 -61 8 22 8 125 6 134 -3z m-14 -23 c-23 -2 -64 -2 -90
0 -26 2 -7 3 42 3 50 0 71 -1 48 -3z m-113 -23 c0 -5 -5 -10 -11 -10 -5 0 -7
5 -4 10 3 6 8 10 11 10 2 0 4 -4 4 -10z m110 -2 c0 -5 -24 -8 -52 -7 -32 0
-46 3 -35 8 24 9 87 8 87 -1z m25 2 c3 -5 1 -10 -4 -10 -6 0 -11 5 -11 10 0 6
2 10 4 10 3 0 8 -4 11 -10z m-32 -27 c-24 -2 -62 -2 -85 0 -24 2 -5 4 42 4 47
0 66 -2 43 -4z m-153 -23 c0 -5 -2 -10 -4 -10 -3 0 -8 5 -11 10 -3 6 -1 10 4
10 6 0 11 -4 11 -10z m79 -3 c11 -15 137 -17 159 -3 9 5 12 -10 12 -58 0 -58
-2 -66 -19 -66 -11 0 -21 3 -23 8 -1 4 -20 16 -41 26 -27 14 -34 22 -25 28 9
6 7 8 -7 6 -11 -1 -32 1 -47 5 -21 6 -27 13 -25 30 1 16 -3 21 -15 19 -10 -2
-18 2 -18 8 0 15 36 12 49 -3z"/>
<path d="M1133 433 c20 -2 54 -2 75 0 20 2 3 4 -38 4 -41 0 -58 -2 -37 -4z"/>
<path d="M1188 413 c7 -3 16 -2 19 1 4 3 -2 6 -13 5 -11 0 -14 -3 -6 -6z"/>
<path d="M630 1941 c-10 -19 -5 -49 9 -53 26 -6 68 -4 79 5 9 7 16 7 24 -1 15
-15 78 -16 78 -2 0 6 -7 10 -16 10 -11 0 -14 8 -12 27 2 15 -2 28 -9 30 -9 3
-13 -7 -14 -29 l-1 -33 -14 33 c-18 40 -32 41 -47 2 -8 -22 -17 -30 -32 -28
-28 4 -33 38 -5 38 12 0 18 5 15 10 -10 17 -44 11 -55 -9z"/>
<path d="M856 1945 c-3 -8 4 -21 17 -30 l21 -15 -22 0 c-13 0 -20 -4 -17 -10
10 -16 45 -12 52 6 4 11 -1 22 -12 30 -10 8 -13 14 -7 14 7 0 12 5 12 10 0 16
-37 12 -44 -5z"/>
<path d="M910 1950 c0 -5 5 -10 10 -10 6 0 10 -13 10 -30 0 -16 5 -30 10 -30
6 0 10 13 10 28 0 15 5 33 12 40 9 9 5 12 -20 12 -18 0 -32 -4 -32 -10z"/>
<path d="M971 1924 c-14 -40 -9 -53 14 -34 12 10 18 10 30 0 12 -10 15 -10 15
3 0 28 -19 67 -33 67 -7 0 -19 -16 -26 -36z"/>
<path d="M1030 1950 c0 -5 5 -10 10 -10 6 0 10 -13 10 -30 0 -16 5 -30 10 -30
6 0 10 13 10 29 0 17 5 33 10 36 6 4 10 -8 10 -29 0 -29 4 -36 19 -36 11 0 23
5 26 10 3 6 -2 10 -12 10 -15 0 -16 2 -3 10 13 9 13 11 0 20 -10 6 -11 10 -2
10 6 0 12 5 12 10 0 6 -22 10 -50 10 -27 0 -50 -4 -50 -10z"/>
<path d="M658 1802 c22 -17 23 -23 20 -142 -3 -121 -4 -125 -26 -128 -12 -2
-20 -6 -18 -10 2 -4 51 -6 109 -4 l105 3 10 42 c10 39 5 69 -6 37 -9 -26 -60
-70 -81 -70 -32 0 -41 31 -41 134 0 95 12 152 29 141 5 -3 12 -1 16 5 4 6 -20
10 -67 10 -72 0 -73 -1 -50 -18z"/>
<path d="M955 1810 c4 -6 10 -8 15 -5 5 3 13 -3 19 -12 7 -14 -1 -43 -33 -118
-55 -130 -64 -145 -83 -145 -9 0 -13 -3 -10 -6 3 -4 29 -7 57 -7 28 0 54 3 57
7 3 3 -3 6 -15 6 -11 0 -23 4 -26 9 -3 5 11 53 31 107 l37 97 12 -34 c18 -50
17 -59 -11 -59 -14 0 -25 -4 -25 -10 0 -5 14 -10 30 -10 27 0 33 -6 49 -42 21
-48 19 -58 -11 -58 -12 0 -19 -3 -15 -6 3 -3 35 -6 71 -6 87 1 85 0 56 15 -20
10 -35 39 -74 150 l-49 137 -44 0 c-27 0 -42 -4 -38 -10z"/>
<path d="M1909 1712 c-2 -30 -1 -56 4 -59 4 -2 8 -25 8 -51 1 -26 4 -36 6 -22
2 14 -1 61 -5 105 l-8 80 -5 -53z"/>
<path d="M1490 1622 c0 -5 7 -9 15 -9 8 0 15 4 15 9 0 4 -7 8 -15 8 -8 0 -15
-4 -15 -8z"/>
<path d="M1816 1530 c5 -4 29 -11 54 -14 53 -7 44 -1 -19 13 -24 5 -39 6 -35
1z"/>
<path d="M1810 1506 c0 -2 7 -7 16 -10 8 -3 12 -2 9 4 -6 10 -25 14 -25 6z"/>
<path d="M1835 1406 c28 -7 56 -11 63 -8 20 7 12 9 -53 15 l-60 6 50 -13z"/>
<path d="M1830 1380 c34 -11 60 -11 35 0 -11 5 -29 8 -40 8 -16 0 -15 -2 5 -8z"/>
<path d="M1840 1350 c8 -5 24 -10 34 -10 26 0 18 6 -19 14 -22 5 -26 4 -15 -4z"/>
<path d="M1798 1313 c6 -2 18 -2 25 0 6 3 1 5 -13 5 -14 0 -19 -2 -12 -5z"/>
<path d="M1630 1280 c0 -5 7 -10 15 -10 8 0 15 5 15 10 0 6 -7 10 -15 10 -8 0
-15 -4 -15 -10z"/>
<path d="M1815 1250 c22 -5 45 -9 50 -10 6 -1 17 -1 25 0 20 3 -58 19 -90 18
-16 0 -10 -3 15 -8z"/>
<path d="M1801 1226 c12 -10 60 -16 54 -6 -3 5 -18 10 -32 10 -15 0 -24 -2
-22 -4z"/>
<path d="M1878 1213 c7 -3 16 -2 19 1 4 3 -2 6 -13 5 -11 0 -14 -3 -6 -6z"/>
<path d="M1838 1068 c6 -6 18 -8 28 -6 14 3 12 5 -9 10 -19 3 -25 2 -19 -4z"/>
<path d="M1790 1013 c0 -4 28 -9 62 -11 35 -2 60 -1 57 2 -9 10 -119 18 -119
9z"/>
<path d="M1818 983 c7 -3 16 -2 19 1 4 3 -2 6 -13 5 -11 0 -14 -3 -6 -6z"/>
<path d="M1863 973 c9 -2 23 -2 30 0 6 3 -1 5 -18 5 -16 0 -22 -2 -12 -5z"/>
<path d="M1322 917 c-6 -6 -13 -24 -17 -40 -7 -26 -5 -27 28 -27 45 0 52 11
32 50 -17 33 -27 37 -43 17z"/>
<path d="M1815 880 c11 -5 31 -8 45 -8 l25 0 -25 8 c-14 4 -34 8 -45 8 l-20 1
20 -9z"/>
<path d="M1805 851 c6 -5 28 -11 50 -15 25 -4 34 -3 25 2 -22 13 -87 24 -75
13z"/>
<path d="M1305 822 c-3 -3 -5 -12 -5 -21 0 -12 10 -16 40 -16 35 0 40 3 38 20
-2 15 -11 20 -35 21 -18 1 -35 -1 -38 -4z"/>
<path d="M1828 813 c7 -3 16 -2 19 1 4 3 -2 6 -13 5 -11 0 -14 -3 -6 -6z"/>
<path d="M1318 763 c12 -2 32 -2 45 0 12 2 2 4 -23 4 -25 0 -35 -2 -22 -4z"/>
<path d="M663 700 c0 -25 2 -35 4 -22 2 12 2 32 0 45 -2 12 -4 2 -4 -23z"/>
<path d="M1825 725 c28 -6 55 -9 60 -6 6 3 -8 9 -30 13 -64 11 -85 7 -30 -7z"/>
<path d="M1798 703 c6 -2 18 -2 25 0 6 3 1 5 -13 5 -14 0 -19 -2 -12 -5z"/>
<path d="M1853 693 c9 -2 23 -2 30 0 6 3 -1 5 -18 5 -16 0 -22 -2 -12 -5z"/>
</g>
</svg>
