<?xml version="1.0" standalone="no"?>
<!DOCTYPE svg PUBLIC "-//W3C//DTD SVG 20010904//EN"
 "http://www.w3.org/TR/2001/REC-SVG-20010904/DTD/svg10.dtd">
<svg version="1.0" xmlns="http://www.w3.org/2000/svg"
 width="477.000000pt" height="549.000000pt" viewBox="0 0 477.000000 549.000000"
 preserveAspectRatio="xMidYMid meet">

<g transform="translate(0.000000,549.000000) scale(0.100000,-0.100000)"
fill="#000000" stroke="none">
<path d="M450 5424 c0 -3 56 -115 125 -249 l125 -243 0 -1060 0 -1060 224
-206 225 -206 200 0 201 0 0 -423 0 -423 143 -155 c78 -85 170 -185 203 -222
l61 -67 831 0 830 0 206 223 206 222 0 333 0 332 -395 0 -395 0 0 -169 c0
-153 -2 -170 -17 -175 -10 -3 -219 -5 -465 -5 l-448 1 0 264 0 264 203 0 202
1 88 83 c48 46 148 139 222 207 l135 124 0 303 0 302 40 0 40 0 0 -165 0 -165
395 0 395 0 0 329 0 328 -205 222 -206 221 -229 0 -230 0 0 371 0 371 120 238
c66 132 120 244 120 250 0 7 -203 10 -635 10 -349 0 -635 -3 -635 -6 0 -8 93
-183 209 -392 l51 -92 0 -375 0 -375 -217 0 -218 0 -202 -222 -203 -223 0
-292 0 -293 -35 0 -35 0 0 890 0 890 119 239 c66 131 117 242 114 245 -8 8
-1263 8 -1263 0z m1160 -69 c0 -3 -45 -98 -100 -211 l-100 -207 0 -924 0 -923
105 0 105 0 0 318 0 318 181 197 c99 108 188 197 197 197 9 1 110 0 223 0 113
0 213 2 222 6 16 6 17 42 17 409 l0 403 -87 153 c-132 233 -143 253 -143 262
0 4 239 7 530 7 322 0 530 -4 530 -9 0 -5 -45 -101 -100 -212 l-100 -202 0
-403 c0 -369 1 -402 17 -408 9 -4 122 -6 251 -5 186 1 237 -1 247 -12 7 -8 90
-97 184 -198 l171 -184 0 -284 0 -283 -325 0 -325 0 -2 163 -3 162 -105 0
-105 0 -3 -321 -2 -321 -58 -54 c-31 -30 -120 -114 -198 -186 l-141 -133 -224
-2 -224 -3 0 -325 0 -325 530 0 530 0 3 168 2 167 325 0 325 0 0 -287 0 -288
-188 -202 -187 -202 -796 -1 -797 0 -183 200 -184 200 -5 448 -5 447 -225 5
-226 5 -202 185 -202 185 0 1052 0 1053 -71 137 c-40 76 -87 166 -105 200 -19
34 -34 64 -34 67 0 3 239 6 530 6 292 0 530 -2 530 -5z"/>
<path d="M1964 4028 c-104 -115 -180 -196 -241 -260 l-63 -67 0 -1051 0 -1050
177 -190 176 -190 776 0 776 1 173 186 172 186 0 253 0 254 -274 0 -274 0 -6
-27 c-4 -14 -7 -65 -6 -112 1 -47 1 -112 1 -144 l-1 -57 -577 2 -578 3 0 885
0 885 158 3 157 3 0 269 0 270 -249 0 -248 0 -49 -52z"/>
<path d="M3050 3977 c0 -57 -3 -179 -7 -270 l-6 -166 158 -3 159 -3 1 -160 0
-160 278 -3 277 -2 0 247 -1 248 -57 62 c-31 34 -109 118 -172 187 l-115 126
-257 0 -258 0 0 -103z"/>
<path d="M2244 3476 c-2 -6 -3 -95 -2 -196 l3 -185 108 -3 107 -3 -2 198 -3
198 -103 2 c-73 1 -105 -2 -108 -11z m146 -186 l0 -130 -40 0 -40 0 0 130 0
130 40 0 40 0 0 -130z"/>
<path d="M221 764 c-67 -212 -121 -391 -118 -398 5 -11 185 -71 193 -63 4 4
84 273 84 282 0 3 4 5 8 5 5 0 17 -64 26 -142 27 -207 15 -187 136 -219 57
-16 106 -27 108 -25 2 3 -8 77 -22 165 -14 88 -26 168 -26 178 0 12 20 29 58
48 l57 30 38 148 37 149 -42 61 c-39 55 -48 62 -98 75 -30 8 -112 32 -181 53
-70 21 -128 39 -130 39 -3 0 -60 -174 -128 -386z m260 293 c41 -13 103 -32
139 -41 55 -15 69 -24 93 -56 32 -45 33 -58 8 -152 -11 -40 -25 -92 -31 -114
-9 -38 -15 -44 -65 -64 -30 -12 -59 -27 -64 -34 -8 -10 13 -190 34 -288 8 -34
-1 -38 -58 -25 -35 8 -49 16 -52 31 -4 20 -27 177 -40 278 -5 41 -10 48 -37
57 -17 6 -36 11 -43 11 -7 0 -30 -63 -55 -147 -24 -82 -44 -149 -45 -150 -3
-5 -105 28 -105 34 0 6 38 125 162 515 40 125 57 168 69 168 9 0 49 -10 90
-23z"/>
<path d="M415 873 c-15 -54 -29 -103 -32 -108 -3 -10 194 -72 201 -64 5 5 56
194 56 206 0 6 -37 20 -82 33 -46 12 -90 25 -99 27 -12 4 -22 -16 -44 -94z
m161 4 c6 -6 -16 -99 -26 -110 -4 -4 -28 -2 -53 5 -53 14 -55 20 -31 91 l15
46 46 -14 c25 -8 47 -16 49 -18z"/>
<path d="M4420 1124 c-41 -13 -129 -38 -195 -56 -66 -17 -123 -34 -128 -38 -4
-3 -1 -28 7 -56 13 -43 48 -178 158 -609 17 -66 34 -124 38 -128 7 -8 159 31
363 94 62 19 97 35 94 42 -2 7 -14 44 -27 82 -12 39 -26 74 -30 78 -4 5 -60
-8 -125 -28 -64 -20 -119 -34 -121 -32 -11 10 -33 112 -26 118 4 3 43 16 88
28 118 33 113 26 81 125 -16 48 -34 86 -40 86 -7 0 -48 -11 -92 -25 -44 -14
-85 -25 -91 -25 -7 0 -17 20 -23 44 -6 24 -13 50 -16 58 -4 11 21 22 105 48
61 18 113 36 115 40 5 8 -42 161 -52 170 -5 4 -42 -3 -83 -16z m64 -79 c4 -19
8 -38 9 -41 1 -4 -47 -21 -108 -39 -60 -17 -110 -36 -110 -41 0 -29 51 -197
62 -201 6 -3 53 7 104 22 50 14 92 25 94 23 11 -14 24 -73 17 -80 -4 -4 -48
-20 -98 -34 -49 -15 -91 -28 -93 -30 -5 -5 49 -197 59 -207 6 -7 168 35 237
60 12 5 41 -73 30 -83 -8 -8 -348 -107 -352 -102 -3 3 -171 651 -177 682 -3
17 15 25 137 62 179 53 181 53 189 9z"/>
<path d="M804 593 c-61 -269 -87 -400 -80 -404 21 -12 186 -42 193 -36 6 7 54
232 129 602 20 99 37 184 38 189 1 10 -125 45 -164 46 -25 0 -26 -4 -116 -397z
m222 324 c1 -1 -11 -65 -27 -142 -16 -77 -47 -230 -69 -340 -23 -110 -43 -207
-46 -216 -4 -14 -11 -15 -57 -4 -42 10 -51 15 -49 31 5 33 154 679 158 685 3
6 84 -7 90 -14z"/>
<path d="M3730 952 c-96 -20 -176 -36 -178 -37 -3 -2 109 -665 129 -763 l11
-53 36 7 c20 3 102 19 182 35 80 17 159 32 177 36 24 4 43 20 77 64 25 33 46
67 46 77 0 14 -71 313 -129 542 -16 64 -17 65 -76 97 -33 18 -69 32 -80 31
-11 0 -99 -17 -195 -36z m239 -31 c20 -11 42 -25 48 -33 5 -7 40 -138 77 -290
48 -201 64 -283 57 -295 -5 -10 -24 -32 -43 -49 -30 -28 -49 -34 -201 -64 -92
-18 -170 -31 -172 -28 -3 3 -17 68 -30 144 -13 77 -38 220 -55 319 -18 99 -34
196 -37 215 l-5 36 128 24 c71 13 138 27 149 31 31 12 43 10 84 -10z"/>
<path d="M3808 821 c-42 -9 -79 -19 -82 -22 -5 -5 91 -520 99 -527 2 -2 53 7
115 19 108 21 111 23 105 46 -19 77 -105 475 -105 488 0 19 -30 18 -132 -4z
m131 -235 c23 -107 45 -203 47 -214 5 -16 -3 -21 -55 -32 -34 -7 -63 -11 -65
-9 -10 10 -86 423 -79 430 9 8 44 16 84 18 25 1 26 -2 68 -193z"/>
<path d="M1134 807 c10 -207 36 -604 44 -662 l7 -50 70 -12 c119 -20 130 -19
147 25 71 173 113 281 193 499 l93 253 -32 5 c-97 15 -156 21 -164 16 -4 -3
-34 -76 -66 -161 -33 -85 -62 -159 -66 -163 -8 -9 -16 65 -26 236 -6 108 -9
118 -28 122 -12 3 -56 11 -100 19 l-78 14 6 -141z m140 62 c2 -2 9 -81 16
-176 17 -251 20 -268 49 -268 25 0 34 19 146 308 31 80 41 97 59 97 36 0 66
-12 66 -25 0 -29 -240 -659 -258 -677 -11 -11 -113 7 -122 21 -4 7 -10 60 -14
119 -10 155 -36 595 -36 606 0 8 87 3 94 -5z"/>
<path d="M3401 894 c-47 -8 -86 -16 -88 -18 -4 -4 5 -76 66 -524 21 -156 41
-285 44 -288 5 -6 183 17 196 26 6 3 -13 150 -49 380 -71 452 -69 440 -78 439
-4 -1 -45 -7 -91 -15z m68 -106 c30 -175 102 -651 98 -654 -8 -9 -98 -21 -102
-14 -5 8 -83 567 -92 662 l-6 57 34 4 c19 2 39 5 45 5 7 1 17 -24 23 -60z"/>
<path d="M1727 818 c-13 -90 -79 -779 -76 -782 5 -5 220 -24 355 -32 l111 -7
6 39 c4 22 7 64 7 96 l0 56 -97 7 c-54 3 -109 7 -123 8 -23 2 -25 6 -28 65
l-3 63 109 -7 109 -7 6 94 c3 51 5 95 3 96 -1 1 -48 6 -104 9 l-102 7 0 32 c0
18 3 46 6 62 l6 30 119 -5 119 -5 0 95 0 94 -189 13 c-104 7 -198 15 -209 18
-17 4 -20 -2 -25 -39z m286 -34 l87 -6 0 -46 0 -45 -119 7 -119 7 -7 -106 c-4
-59 -4 -109 0 -113 4 -4 48 -9 98 -12 l92 -5 3 -48 3 -48 -105 7 -104 7 -6
-44 c-3 -24 -8 -74 -11 -111 l-5 -66 65 -6 c36 -3 94 -9 131 -12 l65 -6 -3
-41 -3 -42 -100 3 c-106 3 -264 17 -269 23 -2 2 12 165 32 363 l36 358 75 -6
c42 -3 115 -8 164 -12z"/>
<path d="M2988 846 l-107 -11 -51 -50 -51 -50 7 -150 c4 -82 10 -157 14 -165
5 -9 33 -33 64 -54 l56 -38 98 7 99 7 6 -58 c3 -32 4 -60 2 -62 -2 -2 -28 -5
-57 -6 -51 -1 -53 0 -56 28 l-4 29 -66 -7 c-37 -3 -82 -6 -99 -6 l-33 0 0 -79
0 -80 65 -46 65 -47 148 13 147 12 57 56 57 56 -20 159 c-11 88 -21 161 -22
162 -1 1 -28 18 -61 39 l-58 37 -98 -7 -97 -7 -5 59 c-3 32 -4 59 -3 61 1 1
25 5 54 9 l51 6 0 -31 0 -32 48 6 c26 3 70 9 97 13 l50 7 -2 44 c-6 98 -10
107 -73 150 -64 44 -57 43 -222 26z m194 -67 c44 -28 48 -35 48 -70 0 -36 -2
-39 -35 -45 -45 -8 -65 0 -65 27 0 22 -2 22 -97 15 -53 -4 -99 -8 -101 -10 -2
-2 0 -53 5 -112 8 -108 8 -109 33 -108 14 1 66 4 115 8 86 6 92 6 132 -20 48
-32 47 -30 64 -187 l13 -117 -34 -35 c-41 -43 -38 -42 -183 -55 l-118 -10 -49
32 c-47 30 -50 35 -50 74 l0 41 47 6 c58 6 63 4 63 -31 l0 -28 78 8 c42 3 90
7 106 7 l28 1 -6 88 c-11 136 -13 144 -44 138 -15 -3 -66 -8 -113 -11 l-85 -7
-45 34 -44 34 -7 134 -8 134 36 37 c35 36 39 37 138 47 55 5 107 10 115 11 8
0 36 -13 63 -30z"/>
<path d="M2206 768 c-3 -29 -8 -181 -11 -338 -3 -157 -8 -318 -11 -358 l-6
-73 108 3 109 3 5 150 c5 135 6 147 18 120 7 -16 36 -82 64 -145 28 -63 54
-119 58 -123 3 -4 57 -6 118 -5 l112 3 -56 115 c-30 63 -65 137 -76 163 l-21
48 46 47 47 48 -1 114 c-1 175 -5 191 -64 239 l-50 41 -192 0 -192 0 -5 -52z
m409 -31 l39 -34 4 -127 4 -128 -52 -53 c-62 -62 -64 -45 27 -229 30 -59 53
-110 51 -112 -2 -1 -28 -4 -58 -6 l-54 -3 -70 157 -70 158 -43 0 -42 0 -3
-157 -3 -158 -55 0 c-48 0 -55 2 -55 20 1 120 18 692 22 698 2 4 75 7 162 7
l158 0 38 -33z"/>
<path d="M2350 565 l0 -116 103 3 102 3 3 113 3 112 -106 0 -105 0 0 -115z
m158 3 l-3 -63 -50 0 -50 0 -3 63 -3 62 56 0 56 0 -3 -62z"/>
</g>
</svg>
