<?xml version="1.0" standalone="no"?>
<!DOCTYPE svg PUBLIC "-//W3C//DTD SVG 20010904//EN"
 "http://www.w3.org/TR/2001/REC-SVG-20010904/DTD/svg10.dtd">
<svg version="1.0" xmlns="http://www.w3.org/2000/svg"
 width="180.000000pt" height="157.000000pt" viewBox="0 0 180.000000 157.000000"
 preserveAspectRatio="xMidYMid meet">

<g transform="translate(0.000000,157.000000) scale(0.100000,-0.100000)"
fill="#000000" stroke="none">
<path d="M1795 785 c0 -434 1 -611 2 -392 2 219 2 575 0 790 -1 216 -2 37 -2
-398z"/>
<path d="M1262 753 l3 -438 73 -3 72 -3 0 441 0 440 -75 0 -75 0 2 -437z"/>
<path d="M1423 1177 c3 -8 8 -40 12 -71 l8 -58 43 69 c49 77 53 74 23 -16 -22
-68 -20 -84 9 -58 10 10 22 17 26 17 4 0 21 9 38 21 48 35 41 16 -17 -41 -29
-30 -53 -56 -52 -57 2 -1 42 4 90 11 48 7 90 10 92 6 2 -3 -34 -19 -81 -34
-47 -15 -84 -30 -81 -32 2 -2 41 -18 88 -34 l84 -31 -75 5 c-41 3 -85 9 -98
12 -17 5 -9 -8 33 -51 31 -31 54 -59 52 -62 -3 -2 -30 12 -62 32 -31 20 -59
34 -62 31 -3 -3 4 -32 16 -64 32 -88 26 -93 -23 -18 l-43 68 -6 -55 c-4 -30
-10 -62 -13 -70 -4 -12 3 -16 32 -19 l38 -3 43 -145 c24 -80 48 -162 53 -182
l11 -38 75 0 c57 0 75 3 71 13 -2 6 -21 64 -41 127 -21 63 -48 147 -61 185
l-24 70 34 30 c57 51 69 87 69 200 0 81 -4 107 -21 140 -42 81 -106 115 -215
115 -55 0 -69 -3 -65 -13z"/>
</g>
</svg>
