<?xml version="1.0" standalone="no"?>
<!DOCTYPE svg PUBLIC "-//W3C//DTD SVG 20010904//EN"
 "http://www.w3.org/TR/2001/REC-SVG-20010904/DTD/svg10.dtd">
<svg version="1.0" xmlns="http://www.w3.org/2000/svg"
 width="176.000000pt" height="127.000000pt" viewBox="0 0 176.000000 127.000000"
 preserveAspectRatio="xMidYMid meet">

<g transform="translate(0.000000,127.000000) scale(0.100000,-0.100000)"
fill="#000000" stroke="none">
<path d="M0 635 l0 -635 880 0 880 0 0 635 0 635 -880 0 -880 0 0 -635z m410
72 c0 -212 2 -256 16 -275 17 -25 51 -29 80 -8 18 13 19 30 22 275 l3 261 56
0 56 0 -5 -270 c-7 -300 -9 -311 -79 -358 -29 -20 -44 -23 -96 -20 -67 4 -100
21 -137 72 -20 26 -21 43 -24 288 -2 144 -1 267 2 275 4 8 23 13 56 13 l50 0
0 -253z m566 234 c38 -23 64 -76 71 -147 l6 -54 -62 0 -61 0 0 50 c0 40 -4 52
-23 64 -29 19 -66 10 -72 -18 -3 -11 -4 -109 -3 -216 l3 -195 28 -9 c46 -16
62 1 65 73 l3 61 60 0 61 0 -7 -62 c-14 -123 -57 -170 -160 -176 -73 -4 -114
18 -145 77 -18 37 -20 59 -20 251 0 231 3 245 60 294 27 22 41 26 98 26 48 0
76 -5 98 -19z m415 -7 c91 -52 108 -235 29 -314 l-23 -23 42 -141 c22 -78 41
-145 41 -149 0 -4 -24 -7 -54 -7 l-55 0 -16 57 c-58 203 -60 208 -88 211 l-27
3 0 -135 0 -136 -60 0 -60 0 0 331 0 331 118 -4 c94 -3 125 -8 153 -24z"/>
<path d="M1243 765 c0 -82 2 -135 4 -117 2 17 8 32 13 32 4 0 18 -15 30 -32
12 -18 19 -24 15 -13 -3 11 -9 33 -12 49 l-6 30 29 -21 c53 -36 59 -36 25 0
l-35 37 45 0 44 1 -40 18 c-40 18 -40 19 -15 29 14 5 34 12 45 15 11 3 -1 5
-27 4 -27 -1 -48 0 -48 2 0 3 15 21 33 40 l32 34 -36 -21 c-20 -12 -40 -22
-44 -22 -7 0 -3 24 11 67 3 10 -4 3 -16 -14 -12 -18 -26 -33 -30 -33 -5 0 -11
15 -13 33 -2 17 -4 -35 -4 -118z"/>
</g>
</svg>
